{
  "source": "C:\\Users\\Peter\\Desktop\\stuff\\MIUN\\quantitative_research\\video_compression\\videos\\BVI-HD\\BVI-HD_CDVL_videos\\ORIG\\FishAndRock_1920x1080_30fps.mp4",
  "output": "C:\\Users\\Peter\\Desktop\\stuff\\MIUN\\quantitative_research\\video_compression\\compressed_videos\\BVI-HD\\hevc\\2\\FishAndRock_1920x1080_30fps_hevc.mp4",
  "codec": "hevc",
  "ok": "Input #0, mov,mp4,m4a,3gp,3g2,mj2, from 'C:\\Users\\Peter\\Desktop\\stuff\\MIUN\\quantitative_research\\video_compression\\videos\\BVI-HD\\BVI-HD_CDVL_videos\\ORIG\\FishAndRock_1920x1080_30fps.mp4':\n  Metadata:\n    major_brand     : isom\n    minor_version   : 512\n    compatible_brands: isomiso2avc1mp41\n    encoder         : Lavf54.28.101\n  Duration: 00:00:05.00, start: 0.000000, bitrate: 251564 kb/s\n  Stream #0:0[0x1](und): Video: h264 (High 4:4:4 Predictive) (avc1 / 0x31637661), yuv420p(progressive), 1920x1080, 251561 kb/s, 30 fps, 30 tbr, 30 tbn (default)\n    Metadata:\n      handler_name    : VideoHandler\n      vendor_id       : [0][0][0][0]\n[out#0/mp4 @ 000002ac2f1d1700] Codec AVOption b:a (set bitrate (in bits/s)) has not been used for any stream. The most likely reason is either wrong type (e.g. a video option with no video streams) or that it is a private option of some decoder which was not actually used for any stream.\nStream mapping:\n  Stream #0:0 -> #0:0 (h264 (native) -> hevc (libx265))\nPress [q] to stop, [?] for help\n[libx265 @ 000002ac2fc60180] Unknown option: \"aq-mode.\nx265 [info]: HEVC encoder version 4.1+190-8f11c33ac\nx265 [info]: build info [Windows][GCC 15.1.0][64 bit] 10bit\nx265 [info]: using cpu capabilities: MMX2 SSE2Fast LZCNT SSSE3 SSE4.2 AVX FMA3 BMI2 AVX2\nx265 [info]: Main 10 profile, Level-4 (Main tier)\nx265 [info]: Thread pool created using 12 threads\nx265 [info]: Slices                              : 1\nx265 [info]: frame threads / pool features       : 3 / wpp(17 rows)\nx265 [info]: Coding QT: max CU size, min CU size : 64 / 8\nx265 [info]: Residual QT: max TU size, max depth : 32 / 1 inter / 1 intra\nx265 [info]: ME / range / subpel / merge         : star / 57 / 3 / 3\nx265 [info]: Keyframe min / max / scenecut / bias  : 25 / 250 / 40 / 5.00 \nx265 [info]: Lookahead / bframes / badapt        : 25 / 4 / 2\nx265 [info]: b-pyramid / weightp / weightb       : 1 / 1 / 0\nx265 [info]: References / ref-limit  cu / depth  : 4 / on / on\nx265 [info]: AQ: mode / str / qg-size / cu-tree  : 2 / 1.0 / 32 / 1\nx265 [info]: Rate Control / qCompress            : ABR-2000 kbps / 0.60\nx265 [info]: VBV/HRD buffer / max-rate / init    : 2000 / 2000 / 0.750\nx265 [info]: tools: rect limit-modes rd=4 psy-rd=2.00 rdoq=2 psy-rdoq=1.00\nx265 [info]: tools: rskip mode=1 signhide tmvp strong-intra-smoothing lslices=4\nx265 [info]: tools: deblock sao dhdr10-info\nOutput #0, mp4, to 'C:\\Users\\Peter\\Desktop\\stuff\\MIUN\\quantitative_research\\video_compression\\compressed_videos\\BVI-HD\\hevc\\2\\FishAndRock_1920x1080_30fps_hevc.mp4':\n  Metadata:\n    major_brand     : isom\n    minor_version   : 512\n    compatible_brands: isomiso2avc1mp41\n    encoder         : Lavf62.3.100\n  Stream #0:0(und): Video: hevc (hev1 / 0x31766568), yuv420p10le(tv, progressive), 1920x1080, q=2-31, 2000 kb/s, 30 fps, 15360 tbn (default)\n    Metadata:\n      encoder         : Lavc62.11.100 libx265\n      handler_name    : VideoHandler\n      vendor_id       : [0][0][0][0]\n    Side data:\n      cpb: bitrate max/min/avg: 2000000/0/2000000 buffer size: 2000000 vbv_delay: N/A\nframe=    0 fps=0.0 q=0.0 size=       0KiB time=N/A bitrate=N/A speed=N/A elapsed=0:00:00.51    \nframe=    0 fps=0.0 q=0.0 size=       0KiB time=N/A bitrate=N/A speed=N/A elapsed=0:00:01.04    \nframe=    0 fps=0.0 q=0.0 size=       0KiB time=N/A bitrate=N/A speed=N/A elapsed=0:00:01.56    \nframe=    0 fps=0.0 q=0.0 size=       0KiB time=N/A bitrate=N/A speed=N/A elapsed=0:00:02.08    \nframe=    0 fps=0.0 q=0.0 size=       0KiB time=N/A bitrate=N/A speed=N/A elapsed=0:00:02.60    \nframe=    0 fps=0.0 q=0.0 size=       0KiB time=N/A bitrate=N/A speed=N/A elapsed=0:00:03.13    \nframe=    0 fps=0.0 q=0.0 size=       0KiB time=N/A bitrate=N/A speed=N/A elapsed=0:00:03.64    \nframe=    0 fps=0.0 q=0.0 size=       0KiB time=N/A bitrate=N/A speed=N/A elapsed=0:00:04.18    \nframe=    0 fps=0.0 q=0.0 size=       0KiB time=N/A bitrate=N/A speed=N/A elapsed=0:00:04.72    \nframe=    0 fps=0.0 q=0.0 size=       0KiB time=N/A bitrate=N/A speed=N/A elapsed=0:00:05.25    \nframe=    0 fps=0.0 q=0.0 size=       0KiB time=N/A bitrate=N/A speed=N/A elapsed=0:00:05.78    \nframe=    0 fps=0.0 q=0.0 size=       0KiB time=N/A bitrate=N/A speed=N/A elapsed=0:00:06.29    \nframe=    0 fps=0.0 q=0.0 size=       0KiB time=N/A bitrate=N/A speed=N/A elapsed=0:00:06.81    \nframe=    0 fps=0.0 q=0.0 size=       0KiB time=N/A bitrate=N/A speed=N/A elapsed=0:00:07.36    \nframe=    0 fps=0.0 q=0.0 size=       0KiB time=N/A bitrate=N/A speed=N/A elapsed=0:00:07.89    \nframe=    0 fps=0.0 q=0.0 size=       0KiB time=N/A bitrate=N/A speed=N/A elapsed=0:00:08.42    \nframe=    0 fps=0.0 q=0.0 size=       0KiB time=N/A bitrate=N/A speed=N/A elapsed=0:00:08.93    \nframe=    1 fps=0.1 q=36.1 size=       0KiB time=-00:00:00.03 bitrate=N/A speed=N/A elapsed=0:00:09.46    \nframe=    1 fps=0.1 q=36.1 size=       0KiB time=-00:00:00.03 bitrate=N/A speed=N/A elapsed=0:00:10.00    \nframe=    1 fps=0.1 q=36.1 size=       0KiB time=-00:00:00.03 bitrate=N/A speed=N/A elapsed=0:00:10.52    \nframe=    2 fps=0.2 q=40.7 size=       0KiB time=00:00:00.00 bitrate=N/A speed=   0x elapsed=0:00:11.03    \nframe=    2 fps=0.2 q=40.7 size=       0KiB time=00:00:00.00 bitrate=N/A speed=   0x elapsed=0:00:11.57    \nframe=    3 fps=0.2 q=46.8 size=       0KiB time=00:00:00.03 bitrate=  10.6kbits/s speed=0.00276x elapsed=0:00:12.09    \nframe=    3 fps=0.2 q=46.8 size=       0KiB time=00:00:00.03 bitrate=  10.6kbits/s speed=0.00264x elapsed=0:00:12.62    \nframe=    3 fps=0.2 q=46.8 size=       0KiB time=00:00:00.03 bitrate=  10.6kbits/s speed=0.00253x elapsed=0:00:13.14    \nframe=    4 fps=0.3 q=36.7 size=       0KiB time=00:00:00.06 bitrate=   5.3kbits/s speed=0.00487x elapsed=0:00:13.68    \nframe=    5 fps=0.4 q=40.2 size=       0KiB time=00:00:00.10 bitrate=   3.5kbits/s speed=0.00704x elapsed=0:00:14.20    \nframe=    5 fps=0.3 q=40.2 size=       0KiB time=00:00:00.10 bitrate=   3.5kbits/s speed=0.00679x elapsed=0:00:14.72    \nframe=    5 fps=0.3 q=40.2 size=       0KiB time=00:00:00.10 bitrate=   3.5kbits/s speed=0.00656x elapsed=0:00:15.25    \nframe=    5 fps=0.3 q=40.2 size=       0KiB time=00:00:00.10 bitrate=   3.5kbits/s speed=0.00633x elapsed=0:00:15.78    \nframe=    6 fps=0.4 q=40.2 size=       0KiB time=00:00:00.13 bitrate=   2.6kbits/s speed=0.00817x elapsed=0:00:16.32    \nframe=    6 fps=0.4 q=40.2 size=       0KiB time=00:00:00.13 bitrate=   2.6kbits/s speed=0.00791x elapsed=0:00:16.85    \nframe=    6 fps=0.3 q=40.2 size=       0KiB time=00:00:00.13 bitrate=   2.6kbits/s speed=0.00767x elapsed=0:00:17.38    \nframe=    7 fps=0.4 q=39.4 size=       0KiB time=00:00:00.16 bitrate=   2.1kbits/s speed=0.0093x elapsed=0:00:17.91    \nframe=    7 fps=0.4 q=39.4 size=       0KiB time=00:00:00.16 bitrate=   2.1kbits/s speed=0.00904x elapsed=0:00:18.43    \nframe=    8 fps=0.4 q=33.6 size=       0KiB time=00:00:00.20 bitrate=   1.8kbits/s speed=0.0106x elapsed=0:00:18.95    \nframe=    9 fps=0.5 q=36.3 size=       0KiB time=00:00:00.23 bitrate=   1.5kbits/s speed=0.012x elapsed=0:00:19.46    \nframe=    9 fps=0.5 q=36.3 size=       0KiB time=00:00:00.23 bitrate=   1.5kbits/s speed=0.0117x elapsed=0:00:19.98    \nframe=    9 fps=0.4 q=36.3 size=       0KiB time=00:00:00.23 bitrate=   1.5kbits/s speed=0.0114x elapsed=0:00:20.51    \nframe=    9 fps=0.4 q=36.3 size=       0KiB time=00:00:00.23 bitrate=   1.5kbits/s speed=0.0111x elapsed=0:00:21.06    \nframe=    9 fps=0.4 q=36.3 size=       0KiB time=00:00:00.23 bitrate=   1.5kbits/s speed=0.0108x elapsed=0:00:21.59    \nframe=    9 fps=0.4 q=36.3 size=       0KiB time=00:00:00.23 bitrate=   1.5kbits/s speed=0.0106x elapsed=0:00:22.11    \nframe=   10 fps=0.4 q=37.6 size=       0KiB time=00:00:00.26 bitrate=   1.3kbits/s speed=0.0118x elapsed=0:00:22.65    \nframe=   11 fps=0.5 q=39.7 size=       0KiB time=00:00:00.30 bitrate=   1.2kbits/s speed=0.0129x elapsed=0:00:23.18    \nframe=   11 fps=0.5 q=39.7 size=       0KiB time=00:00:00.30 bitrate=   1.2kbits/s speed=0.0127x elapsed=0:00:23.70    \nframe=   11 fps=0.5 q=39.7 size=       0KiB time=00:00:00.30 bitrate=   1.2kbits/s speed=0.0124x elapsed=0:00:24.23    \nframe=   12 fps=0.5 q=33.2 size=       0KiB time=00:00:00.33 bitrate=   1.1kbits/s speed=0.0135x elapsed=0:00:24.75    \nframe=   13 fps=0.5 q=37.5 size=       0KiB time=00:00:00.33 bitrate=   1.1kbits/s speed=0.0132x elapsed=0:00:25.27    \nframe=   13 fps=0.5 q=37.5 size=       0KiB time=00:00:00.36 bitrate=   1.0kbits/s speed=0.0142x elapsed=0:00:25.82    \nframe=   13 fps=0.5 q=37.5 size=       0KiB time=00:00:00.36 bitrate=   1.0kbits/s speed=0.0139x elapsed=0:00:26.36    \nframe=   13 fps=0.5 q=37.5 size=       0KiB time=00:00:00.36 bitrate=   1.0kbits/s speed=0.0136x elapsed=0:00:26.89    \nframe=   14 fps=0.5 q=39.2 size=       0KiB time=00:00:00.40 bitrate=   0.9kbits/s speed=0.0146x elapsed=0:00:27.45    \nframe=   14 fps=0.5 q=39.2 size=       0KiB time=00:00:00.40 bitrate=   0.9kbits/s speed=0.0143x elapsed=0:00:27.96    \nframe=   14 fps=0.5 q=39.2 size=       0KiB time=00:00:00.40 bitrate=   0.9kbits/s speed=0.014x elapsed=0:00:28.48    \nframe=   15 fps=0.5 q=38.7 size=       0KiB time=00:00:00.43 bitrate=   0.8kbits/s speed=0.0149x elapsed=0:00:29.00    \nframe=   15 fps=0.5 q=38.7 size=       0KiB time=00:00:00.43 bitrate=   0.8kbits/s speed=0.0147x elapsed=0:00:29.56    \nframe=   15 fps=0.5 q=38.7 size=       0KiB time=00:00:00.43 bitrate=   0.8kbits/s speed=0.0144x elapsed=0:00:30.13    \nframe=   15 fps=0.5 q=38.7 size=       0KiB time=00:00:00.43 bitrate=   0.8kbits/s speed=0.0141x elapsed=0:00:30.63    \nframe=   16 fps=0.5 q=32.5 size=       0KiB time=00:00:00.46 bitrate=   0.8kbits/s speed=0.015x elapsed=0:00:31.16    \nframe=   16 fps=0.5 q=32.5 size=       0KiB time=00:00:00.46 bitrate=   0.8kbits/s speed=0.0147x elapsed=0:00:31.69    \nframe=   17 fps=0.5 q=36.8 size=       0KiB time=00:00:00.50 bitrate=   0.7kbits/s speed=0.0155x elapsed=0:00:32.21    \nframe=   17 fps=0.5 q=36.8 size=       0KiB time=00:00:00.50 bitrate=   0.7kbits/s speed=0.0153x elapsed=0:00:32.74    \nframe=   17 fps=0.5 q=36.8 size=       0KiB time=00:00:00.50 bitrate=   0.7kbits/s speed=0.015x elapsed=0:00:33.24    \nframe=   18 fps=0.5 q=38.5 size=       0KiB time=00:00:00.53 bitrate=   0.7kbits/s speed=0.0158x elapsed=0:00:33.76    \nframe=   18 fps=0.5 q=38.5 size=       0KiB time=00:00:00.53 bitrate=   0.7kbits/s speed=0.0156x elapsed=0:00:34.27    \nframe=   18 fps=0.5 q=38.5 size=       0KiB time=00:00:00.53 bitrate=   0.7kbits/s speed=0.0153x elapsed=0:00:34.80    \nframe=   18 fps=0.5 q=38.5 size=       0KiB time=00:00:00.53 bitrate=   0.7kbits/s speed=0.0151x elapsed=0:00:35.33    \nframe=   19 fps=0.5 q=38.1 size=       0KiB time=00:00:00.56 bitrate=   0.6kbits/s speed=0.0158x elapsed=0:00:35.86    \nframe=   20 fps=0.5 q=31.8 size=       0KiB time=00:00:00.60 bitrate=   0.6kbits/s speed=0.0165x elapsed=0:00:36.38    \nframe=   20 fps=0.5 q=31.8 size=       0KiB time=00:00:00.60 bitrate=   0.6kbits/s speed=0.0162x elapsed=0:00:36.93    \nframe=   20 fps=0.5 q=31.8 size=       0KiB time=00:00:00.60 bitrate=   0.6kbits/s speed=0.016x elapsed=0:00:37.45    \nframe=   20 fps=0.5 q=31.8 size=       0KiB time=00:00:00.60 bitrate=   0.6kbits/s speed=0.0158x elapsed=0:00:37.99    \nframe=   21 fps=0.5 q=37.3 size=       0KiB time=00:00:00.63 bitrate=   0.6kbits/s speed=0.0164x elapsed=0:00:38.51    \nframe=   21 fps=0.5 q=37.3 size=       0KiB time=00:00:00.63 bitrate=   0.6kbits/s speed=0.0162x elapsed=0:00:39.03    \nframe=   21 fps=0.5 q=37.3 size=       0KiB time=00:00:00.63 bitrate=   0.6kbits/s speed=0.016x elapsed=0:00:39.56    \nframe=   23 fps=0.6 q=32.1 size=       0KiB time=00:00:00.70 bitrate=   0.5kbits/s speed=0.0175x elapsed=0:00:40.08    \nframe=   23 fps=0.6 q=32.1 size=       0KiB time=00:00:00.70 bitrate=   0.5kbits/s speed=0.0172x elapsed=0:00:40.59    \nframe=   23 fps=0.6 q=32.1 size=       0KiB time=00:00:00.70 bitrate=   0.5kbits/s speed=0.017x elapsed=0:00:41.11    \nframe=   24 fps=0.6 q=36.1 size=       0KiB time=00:00:00.73 bitrate=   0.5kbits/s speed=0.0176x elapsed=0:00:41.63    \nframe=   24 fps=0.6 q=36.1 size=       0KiB time=00:00:00.73 bitrate=   0.5kbits/s speed=0.0174x elapsed=0:00:42.18    \nframe=   24 fps=0.6 q=36.1 size=       0KiB time=00:00:00.73 bitrate=   0.5kbits/s speed=0.0172x elapsed=0:00:42.75    \nframe=   24 fps=0.6 q=36.1 size=       0KiB time=00:00:00.73 bitrate=   0.5kbits/s speed=0.0169x elapsed=0:00:43.29    \nframe=   24 fps=0.5 q=36.1 size=       0KiB time=00:00:00.73 bitrate=   0.5kbits/s speed=0.0167x elapsed=0:00:43.81    \nframe=   24 fps=0.5 q=36.1 size=       0KiB time=00:00:00.73 bitrate=   0.5kbits/s speed=0.0165x elapsed=0:00:44.33    \nframe=   25 fps=0.6 q=37.5 size=       0KiB time=00:00:00.76 bitrate=   0.5kbits/s speed=0.0171x elapsed=0:00:44.85    \nframe=   26 fps=0.6 q=37.5 size=       0KiB time=00:00:00.80 bitrate=   0.4kbits/s speed=0.0176x elapsed=0:00:45.38    \nframe=   26 fps=0.6 q=37.5 size=       0KiB time=00:00:00.80 bitrate=   0.4kbits/s speed=0.0174x elapsed=0:00:45.88    \nframe=   27 fps=0.6 q=31.2 size=       0KiB time=00:00:00.83 bitrate=   0.4kbits/s speed=0.018x elapsed=0:00:46.40    \nframe=   28 fps=0.6 q=35.5 size=       0KiB time=00:00:00.86 bitrate=   0.4kbits/s speed=0.0185x elapsed=0:00:46.92    \nframe=   28 fps=0.6 q=35.5 size=       0KiB time=00:00:00.86 bitrate=   0.4kbits/s speed=0.0183x elapsed=0:00:47.44    \nframe=   29 fps=0.6 q=37.1 size=       0KiB time=00:00:00.90 bitrate=   0.4kbits/s speed=0.0188x elapsed=0:00:47.95    \nframe=   30 fps=0.6 q=37.2 size=       0KiB time=00:00:00.93 bitrate=   0.4kbits/s speed=0.0193x elapsed=0:00:48.47    \nframe=   32 fps=0.7 q=35.5 size=       0KiB time=00:00:01.00 bitrate=   0.4kbits/s speed=0.0204x elapsed=0:00:48.99    \nframe=   32 fps=0.6 q=35.5 size=       0KiB time=00:00:01.00 bitrate=   0.4kbits/s speed=0.0202x elapsed=0:00:49.49    \nframe=   32 fps=0.6 q=35.5 size=       0KiB time=00:00:01.00 bitrate=   0.4kbits/s speed=0.02x elapsed=0:00:50.01    \nframe=   33 fps=0.7 q=37.5 size=       0KiB time=00:00:01.03 bitrate=   0.3kbits/s speed=0.0204x elapsed=0:00:50.53    \nframe=   34 fps=0.7 q=36.6 size=       0KiB time=00:00:01.06 bitrate=   0.3kbits/s speed=0.0209x elapsed=0:00:51.04    \nframe=   35 fps=0.7 q=30.6 size=       0KiB time=00:00:01.10 bitrate=   0.3kbits/s speed=0.0213x elapsed=0:00:51.56    \nframe=   35 fps=0.7 q=30.6 size=       0KiB time=00:00:01.10 bitrate=   0.3kbits/s speed=0.0211x elapsed=0:00:52.08    \nframe=   36 fps=0.7 q=34.9 size=     256KiB time=00:00:01.13 bitrate=1850.7kbits/s speed=0.0215x elapsed=0:00:52.59    \nframe=   37 fps=0.7 q=36.6 size=     256KiB time=00:00:01.16 bitrate=1797.9kbits/s speed=0.022x elapsed=0:00:53.11    \nframe=   38 fps=0.7 q=30.8 size=     256KiB time=00:00:01.20 bitrate=1747.9kbits/s speed=0.0224x elapsed=0:00:53.63    \nframe=   39 fps=0.7 q=35.0 size=     256KiB time=00:00:01.23 bitrate=1700.7kbits/s speed=0.0228x elapsed=0:00:54.13    \nframe=   39 fps=0.7 q=35.0 size=     256KiB time=00:00:01.23 bitrate=1700.7kbits/s speed=0.0226x elapsed=0:00:54.65    \nframe=   40 fps=0.7 q=36.8 size=     256KiB time=00:00:01.26 bitrate=1655.9kbits/s speed=0.023x elapsed=0:00:55.17    \nframe=   40 fps=0.7 q=36.8 size=     256KiB time=00:00:01.26 bitrate=1655.9kbits/s speed=0.0227x elapsed=0:00:55.69    \nframe=   41 fps=0.7 q=37.4 size=     256KiB time=00:00:01.30 bitrate=1613.5kbits/s speed=0.0231x elapsed=0:00:56.20    \nframe=   42 fps=0.7 q=30.6 size=     256KiB time=00:00:01.33 bitrate=1573.1kbits/s speed=0.0235x elapsed=0:00:56.72    \nframe=   42 fps=0.7 q=30.6 size=     256KiB time=00:00:01.33 bitrate=1573.1kbits/s speed=0.0233x elapsed=0:00:57.24    \nframe=   43 fps=0.7 q=34.5 size=     256KiB time=00:00:01.36 bitrate=1534.8kbits/s speed=0.0237x elapsed=0:00:57.75    \nframe=   43 fps=0.7 q=34.5 size=     256KiB time=00:00:01.36 bitrate=1534.8kbits/s speed=0.0235x elapsed=0:00:58.26    \nframe=   43 fps=0.7 q=34.5 size=     256KiB time=00:00:01.36 bitrate=1534.8kbits/s speed=0.0232x elapsed=0:00:58.78    \nframe=   44 fps=0.7 q=37.2 size=     256KiB time=00:00:01.40 bitrate=1498.2kbits/s speed=0.0236x elapsed=0:00:59.32    \nframe=   44 fps=0.7 q=37.2 size=     256KiB time=00:00:01.40 bitrate=1498.2kbits/s speed=0.0234x elapsed=0:00:59.82    \nframe=   44 fps=0.7 q=37.2 size=     256KiB time=00:00:01.40 bitrate=1498.2kbits/s speed=0.0232x elapsed=0:01:00.34    \nframe=   44 fps=0.7 q=37.2 size=     256KiB time=00:00:01.40 bitrate=1498.2kbits/s speed=0.023x elapsed=0:01:00.86    \nframe=   44 fps=0.7 q=37.2 size=     256KiB time=00:00:01.40 bitrate=1498.2kbits/s speed=0.0228x elapsed=0:01:01.38    \nframe=   45 fps=0.7 q=36.6 size=     256KiB time=00:00:01.43 bitrate=1463.4kbits/s speed=0.0232x elapsed=0:01:01.90    \nframe=   46 fps=0.7 q=36.4 size=     256KiB time=00:00:01.46 bitrate=1430.1kbits/s speed=0.0235x elapsed=0:01:02.44    \nframe=   47 fps=0.7 q=30.3 size=     256KiB time=00:00:01.50 bitrate=1398.3kbits/s speed=0.0238x elapsed=0:01:02.98    \nframe=   47 fps=0.7 q=30.3 size=     256KiB time=00:00:01.50 bitrate=1398.3kbits/s speed=0.0236x elapsed=0:01:03.51    \nframe=   47 fps=0.7 q=30.3 size=     256KiB time=00:00:01.50 bitrate=1398.3kbits/s speed=0.0234x elapsed=0:01:04.03    \nframe=   48 fps=0.7 q=35.2 size=     256KiB time=00:00:01.53 bitrate=1367.9kbits/s speed=0.0238x elapsed=0:01:04.54    \nframe=   48 fps=0.7 q=35.2 size=     256KiB time=00:00:01.53 bitrate=1367.9kbits/s speed=0.0236x elapsed=0:01:05.08    \nframe=   49 fps=0.7 q=37.5 size=     256KiB time=00:00:01.56 bitrate=1338.8kbits/s speed=0.0239x elapsed=0:01:05.61    \nframe=   49 fps=0.7 q=37.5 size=     256KiB time=00:00:01.56 bitrate=1338.8kbits/s speed=0.0237x elapsed=0:01:06.13    \nframe=   50 fps=0.7 q=30.3 size=     256KiB time=00:00:01.60 bitrate=1310.9kbits/s speed=0.024x elapsed=0:01:06.67    \nframe=   50 fps=0.7 q=30.3 size=     256KiB time=00:00:01.60 bitrate=1310.9kbits/s speed=0.0238x elapsed=0:01:07.21    \nframe=   51 fps=0.8 q=34.4 size=     256KiB time=00:00:01.63 bitrate=1284.2kbits/s speed=0.0241x elapsed=0:01:07.73    \nframe=   51 fps=0.7 q=34.4 size=     256KiB time=00:00:01.63 bitrate=1284.2kbits/s speed=0.0239x elapsed=0:01:08.25    \nframe=   51 fps=0.7 q=34.4 size=     256KiB time=00:00:01.63 bitrate=1284.2kbits/s speed=0.0238x elapsed=0:01:08.76    \nframe=   51 fps=0.7 q=34.4 size=     256KiB time=00:00:01.63 bitrate=1284.2kbits/s speed=0.0236x elapsed=0:01:09.28    \nframe=   51 fps=0.7 q=34.4 size=     256KiB time=00:00:01.63 bitrate=1284.2kbits/s speed=0.0234x elapsed=0:01:09.81    \nframe=   52 fps=0.7 q=36.0 size=     256KiB time=00:00:01.66 bitrate=1258.5kbits/s speed=0.0237x elapsed=0:01:10.32    \nframe=   52 fps=0.7 q=36.0 size=     256KiB time=00:00:01.66 bitrate=1258.5kbits/s speed=0.0235x elapsed=0:01:10.85    \nframe=   53 fps=0.7 q=36.6 size=     256KiB time=00:00:01.70 bitrate=1233.8kbits/s speed=0.0238x elapsed=0:01:11.37    \nframe=   53 fps=0.7 q=36.6 size=     256KiB time=00:00:01.70 bitrate=1233.8kbits/s speed=0.0236x elapsed=0:01:11.89    \nframe=   54 fps=0.7 q=30.4 size=     256KiB time=00:00:01.73 bitrate=1210.1kbits/s speed=0.0239x elapsed=0:01:12.42    \nframe=   55 fps=0.8 q=33.3 size=     256KiB time=00:00:01.76 bitrate=1187.3kbits/s speed=0.0242x elapsed=0:01:12.95    \nframe=   56 fps=0.8 q=36.5 size=     256KiB time=00:00:01.80 bitrate=1165.3kbits/s speed=0.0245x elapsed=0:01:13.50    \nframe=   57 fps=0.8 q=36.2 size=     256KiB time=00:00:01.83 bitrate=1144.1kbits/s speed=0.0248x elapsed=0:01:14.02    \nframe=   57 fps=0.8 q=36.2 size=     256KiB time=00:00:01.83 bitrate=1144.1kbits/s speed=0.0246x elapsed=0:01:14.54    \nframe=   57 fps=0.8 q=36.2 size=     256KiB time=00:00:01.83 bitrate=1144.1kbits/s speed=0.0244x elapsed=0:01:15.08    \nframe=   57 fps=0.8 q=36.2 size=     256KiB time=00:00:01.83 bitrate=1144.1kbits/s speed=0.0242x elapsed=0:01:15.61    \nframe=   57 fps=0.7 q=36.2 size=     256KiB time=00:00:01.83 bitrate=1144.1kbits/s speed=0.0241x elapsed=0:01:16.15    \nframe=   57 fps=0.7 q=36.2 size=     256KiB time=00:00:01.83 bitrate=1144.1kbits/s speed=0.0239x elapsed=0:01:16.70    \nframe=   58 fps=0.8 q=36.6 size=     256KiB time=00:00:01.86 bitrate=1123.7kbits/s speed=0.0242x elapsed=0:01:17.22    \nframe=   60 fps=0.8 q=34.4 size=     256KiB time=00:00:01.93 bitrate=1084.9kbits/s speed=0.0249x elapsed=0:01:17.73    \nframe=   60 fps=0.8 q=34.4 size=     256KiB time=00:00:01.93 bitrate=1084.9kbits/s speed=0.0247x elapsed=0:01:18.25    \nframe=   61 fps=0.8 q=36.7 size=     256KiB time=00:00:01.96 bitrate=1066.5kbits/s speed=0.025x elapsed=0:01:18.79    \nframe=   61 fps=0.8 q=36.7 size=     256KiB time=00:00:01.96 bitrate=1066.5kbits/s speed=0.0248x elapsed=0:01:19.31    \nframe=   62 fps=0.8 q=36.7 size=     256KiB time=00:00:02.00 bitrate=1048.8kbits/s speed=0.0251x elapsed=0:01:19.83    \nframe=   62 fps=0.8 q=36.7 size=     256KiB time=00:00:02.00 bitrate=1048.8kbits/s speed=0.0249x elapsed=0:01:20.35    \nframe=   62 fps=0.8 q=36.7 size=     256KiB time=00:00:02.00 bitrate=1048.8kbits/s speed=0.0247x elapsed=0:01:20.87    \nframe=   62 fps=0.8 q=36.7 size=     256KiB time=00:00:02.00 bitrate=1048.8kbits/s speed=0.0246x elapsed=0:01:21.39    \nframe=   63 fps=0.8 q=30.2 size=     256KiB time=00:00:02.03 bitrate=1031.6kbits/s speed=0.0248x elapsed=0:01:21.93    \nframe=   64 fps=0.8 q=34.7 size=     256KiB time=00:00:02.06 bitrate=1014.9kbits/s speed=0.0251x elapsed=0:01:22.44    \nframe=   64 fps=0.8 q=34.7 size=     256KiB time=00:00:02.06 bitrate=1014.9kbits/s speed=0.0249x elapsed=0:01:22.96    \nframe=   64 fps=0.8 q=34.7 size=     256KiB time=00:00:02.06 bitrate=1014.9kbits/s speed=0.0248x elapsed=0:01:23.48    \nframe=   65 fps=0.8 q=36.6 size=     256KiB time=00:00:02.10 bitrate= 998.8kbits/s speed=0.025x elapsed=0:01:24.00    \nframe=   65 fps=0.8 q=36.6 size=     256KiB time=00:00:02.10 bitrate= 998.8kbits/s speed=0.0248x elapsed=0:01:24.52    \nframe=   66 fps=0.8 q=36.7 size=     256KiB time=00:00:02.13 bitrate= 983.2kbits/s speed=0.0251x elapsed=0:01:25.03    \nframe=   66 fps=0.8 q=36.7 size=     256KiB time=00:00:02.13 bitrate= 983.2kbits/s speed=0.0249x elapsed=0:01:25.56    \nframe=   66 fps=0.8 q=36.7 size=     256KiB time=00:00:02.13 bitrate= 983.2kbits/s speed=0.0248x elapsed=0:01:26.07    \nframe=   66 fps=0.8 q=36.7 size=     256KiB time=00:00:02.13 bitrate= 983.2kbits/s speed=0.0246x elapsed=0:01:26.59    \nframe=   67 fps=0.8 q=30.3 size=     256KiB time=00:00:02.16 bitrate= 968.1kbits/s speed=0.0249x elapsed=0:01:27.10    \nframe=   67 fps=0.8 q=30.3 size=     256KiB time=00:00:02.16 bitrate= 968.1kbits/s speed=0.0247x elapsed=0:01:27.62    \nframe=   67 fps=0.8 q=30.3 size=     256KiB time=00:00:02.16 bitrate= 968.1kbits/s speed=0.0246x elapsed=0:01:28.14    \nframe=   68 fps=0.8 q=34.8 size=     512KiB time=00:00:02.20 bitrate=1906.7kbits/s speed=0.0248x elapsed=0:01:28.66    \nframe=   68 fps=0.8 q=34.8 size=     512KiB time=00:00:02.20 bitrate=1906.7kbits/s speed=0.0247x elapsed=0:01:29.17    \nframe=   69 fps=0.8 q=36.7 size=     512KiB time=00:00:02.23 bitrate=1878.2kbits/s speed=0.0249x elapsed=0:01:29.69    \nframe=   69 fps=0.8 q=36.7 size=     512KiB time=00:00:02.23 bitrate=1878.2kbits/s speed=0.0248x elapsed=0:01:30.21    \nframe=   69 fps=0.8 q=36.7 size=     512KiB time=00:00:02.23 bitrate=1878.2kbits/s speed=0.0246x elapsed=0:01:30.73    \nframe=   70 fps=0.8 q=35.8 size=     512KiB time=00:00:02.26 bitrate=1850.6kbits/s speed=0.0248x elapsed=0:01:31.25    \nframe=   71 fps=0.8 q=29.6 size=     512KiB time=00:00:02.30 bitrate=1823.8kbits/s speed=0.0251x elapsed=0:01:31.77    \nframe=   72 fps=0.8 q=33.8 size=     512KiB time=00:00:02.33 bitrate=1797.7kbits/s speed=0.0253x elapsed=0:01:32.29    \nframe=   72 fps=0.8 q=33.8 size=     512KiB time=00:00:02.33 bitrate=1797.7kbits/s speed=0.0251x elapsed=0:01:32.81    \nframe=   72 fps=0.8 q=33.8 size=     512KiB time=00:00:02.33 bitrate=1797.7kbits/s speed=0.025x elapsed=0:01:33.38    \nframe=   72 fps=0.8 q=33.8 size=     512KiB time=00:00:02.33 bitrate=1797.7kbits/s speed=0.0248x elapsed=0:01:33.99    \nframe=   72 fps=0.8 q=33.8 size=     512KiB time=00:00:02.33 bitrate=1797.7kbits/s speed=0.0247x elapsed=0:01:34.52    \nframe=   72 fps=0.8 q=33.8 size=     512KiB time=00:00:02.33 bitrate=1797.7kbits/s speed=0.0245x elapsed=0:01:35.09    \nframe=   72 fps=0.8 q=33.8 size=     512KiB time=00:00:02.33 bitrate=1797.7kbits/s speed=0.0244x elapsed=0:01:35.61    \nframe=   73 fps=0.8 q=36.5 size=     512KiB time=00:00:02.36 bitrate=1772.4kbits/s speed=0.0246x elapsed=0:01:36.14    \nframe=   73 fps=0.8 q=36.5 size=     512KiB time=00:00:02.36 bitrate=1772.4kbits/s speed=0.0245x elapsed=0:01:36.67    \nframe=   74 fps=0.8 q=36.3 size=     512KiB time=00:00:02.40 bitrate=1747.8kbits/s speed=0.0247x elapsed=0:01:37.20    \nframe=   74 fps=0.8 q=36.3 size=     512KiB time=00:00:02.40 bitrate=1747.8kbits/s speed=0.0246x elapsed=0:01:37.74    \nframe=   75 fps=0.8 q=30.0 size=     512KiB time=00:00:02.43 bitrate=1723.8kbits/s speed=0.0248x elapsed=0:01:38.25    \nframe=   76 fps=0.8 q=33.8 size=     512KiB time=00:00:02.46 bitrate=1700.5kbits/s speed=0.025x elapsed=0:01:38.76    \nframe=   77 fps=0.8 q=36.3 size=     512KiB time=00:00:02.50 bitrate=1677.9kbits/s speed=0.0252x elapsed=0:01:39.29    \nframe=   77 fps=0.8 q=36.3 size=     512KiB time=00:00:02.50 bitrate=1677.9kbits/s speed=0.025x elapsed=0:01:39.82    \nframe=   79 fps=0.8 q=29.9 size=     512KiB time=00:00:02.56 bitrate=1634.3kbits/s speed=0.0256x elapsed=0:01:40.34    \nframe=   80 fps=0.8 q=33.8 size=     512KiB time=00:00:02.60 bitrate=1613.3kbits/s speed=0.0258x elapsed=0:01:40.86    \nframe=   80 fps=0.8 q=33.8 size=     512KiB time=00:00:02.60 bitrate=1613.3kbits/s speed=0.0256x elapsed=0:01:41.37    \nframe=   81 fps=0.8 q=36.9 size=     512KiB time=00:00:02.63 bitrate=1592.9kbits/s speed=0.0258x elapsed=0:01:41.89    \nframe=   82 fps=0.8 q=36.6 size=     512KiB time=00:00:02.66 bitrate=1573.0kbits/s speed=0.026x elapsed=0:01:42.41    \nframe=   83 fps=0.8 q=30.1 size=     512KiB time=00:00:02.66 bitrate=1573.0kbits/s speed=0.0259x elapsed=0:01:42.91    \nframe=   83 fps=0.8 q=30.1 size=     512KiB time=00:00:02.70 bitrate=1553.6kbits/s speed=0.0261x elapsed=0:01:43.51    \nframe=   83 fps=0.8 q=30.1 size=     512KiB time=00:00:02.70 bitrate=1553.6kbits/s speed=0.0259x elapsed=0:01:44.06    \nframe=   83 fps=0.8 q=30.1 size=     512KiB time=00:00:02.70 bitrate=1553.6kbits/s speed=0.0258x elapsed=0:01:44.57    \nframe=   84 fps=0.8 q=33.1 size=     512KiB time=00:00:02.73 bitrate=1534.6kbits/s speed=0.026x elapsed=0:01:45.10    \nframe=   84 fps=0.8 q=33.1 size=     512KiB time=00:00:02.73 bitrate=1534.6kbits/s speed=0.0259x elapsed=0:01:45.62    \nframe=   85 fps=0.8 q=37.6 size=     512KiB time=00:00:02.76 bitrate=1516.1kbits/s speed=0.0261x elapsed=0:01:46.15    \nframe=   85 fps=0.8 q=37.6 size=     512KiB time=00:00:02.76 bitrate=1516.1kbits/s speed=0.0259x elapsed=0:01:46.67    \nframe=   85 fps=0.8 q=37.6 size=     512KiB time=00:00:02.76 bitrate=1516.1kbits/s speed=0.0258x elapsed=0:01:47.21    \nframe=   85 fps=0.8 q=37.6 size=     512KiB time=00:00:02.76 bitrate=1516.1kbits/s speed=0.0257x elapsed=0:01:47.73    \nframe=   86 fps=0.8 q=36.4 size=     512KiB time=00:00:02.80 bitrate=1498.1kbits/s speed=0.0259x elapsed=0:01:48.28    \nframe=   86 fps=0.8 q=36.4 size=     512KiB time=00:00:02.80 bitrate=1498.1kbits/s speed=0.0257x elapsed=0:01:48.80    \nframe=   86 fps=0.8 q=36.4 size=     512KiB time=00:00:02.80 bitrate=1498.1kbits/s speed=0.0256x elapsed=0:01:49.32    \nframe=   86 fps=0.8 q=36.4 size=     512KiB time=00:00:02.80 bitrate=1498.1kbits/s speed=0.0255x elapsed=0:01:49.84    \nframe=   87 fps=0.8 q=29.8 size=     512KiB time=00:00:02.83 bitrate=1480.5kbits/s speed=0.0257x elapsed=0:01:50.38    \nframe=   87 fps=0.8 q=29.8 size=     512KiB time=00:00:02.83 bitrate=1480.5kbits/s speed=0.0255x elapsed=0:01:50.90    \nframe=   88 fps=0.8 q=36.8 size=     512KiB time=00:00:02.86 bitrate=1463.3kbits/s speed=0.0257x elapsed=0:01:51.42    \nframe=   88 fps=0.8 q=36.8 size=     512KiB time=00:00:02.86 bitrate=1463.3kbits/s speed=0.0256x elapsed=0:01:51.94    \nframe=   88 fps=0.8 q=36.8 size=     512KiB time=00:00:02.86 bitrate=1463.3kbits/s speed=0.0255x elapsed=0:01:52.48    \nframe=   88 fps=0.8 q=36.8 size=     512KiB time=00:00:02.86 bitrate=1463.3kbits/s speed=0.0254x elapsed=0:01:52.99    \nframe=   88 fps=0.8 q=36.8 size=     512KiB time=00:00:02.86 bitrate=1463.3kbits/s speed=0.0252x elapsed=0:01:53.53    \nframe=   89 fps=0.8 q=29.5 size=     512KiB time=00:00:02.90 bitrate=1446.4kbits/s speed=0.0254x elapsed=0:01:54.05    \nframe=   89 fps=0.8 q=29.5 size=     512KiB time=00:00:02.90 bitrate=1446.4kbits/s speed=0.0253x elapsed=0:01:54.58    \nframe=   89 fps=0.8 q=29.5 size=     512KiB time=00:00:02.90 bitrate=1446.4kbits/s speed=0.0252x elapsed=0:01:55.12    \nframe=   90 fps=0.8 q=31.8 size=     512KiB time=00:00:02.93 bitrate=1430.0kbits/s speed=0.0254x elapsed=0:01:55.63    \nframe=   90 fps=0.8 q=31.8 size=     512KiB time=00:00:02.93 bitrate=1430.0kbits/s speed=0.0252x elapsed=0:01:56.17    \nframe=   90 fps=0.8 q=31.8 size=     512KiB time=00:00:02.93 bitrate=1430.0kbits/s speed=0.0251x elapsed=0:01:56.68    \nframe=   91 fps=0.8 q=37.5 size=     512KiB time=00:00:02.96 bitrate=1413.9kbits/s speed=0.0253x elapsed=0:01:57.22    \nframe=   91 fps=0.8 q=37.5 size=     512KiB time=00:00:02.96 bitrate=1413.9kbits/s speed=0.0252x elapsed=0:01:57.76    \nframe=   91 fps=0.8 q=37.5 size=     512KiB time=00:00:02.96 bitrate=1413.9kbits/s speed=0.0251x elapsed=0:01:58.30    \nframe=   92 fps=0.8 q=37.4 size=     512KiB time=00:00:03.00 bitrate=1398.2kbits/s speed=0.0252x elapsed=0:01:58.82    \nframe=   93 fps=0.8 q=37.7 size=     512KiB time=00:00:03.03 bitrate=1382.9kbits/s speed=0.0254x elapsed=0:01:59.34    \nframe=   93 fps=0.8 q=37.7 size=     512KiB time=00:00:03.03 bitrate=1382.9kbits/s speed=0.0253x elapsed=0:01:59.86    \nframe=   93 fps=0.8 q=37.7 size=     512KiB time=00:00:03.03 bitrate=1382.9kbits/s speed=0.0252x elapsed=0:02:00.39    \nframe=   93 fps=0.8 q=37.7 size=     512KiB time=00:00:03.03 bitrate=1382.9kbits/s speed=0.0251x elapsed=0:02:00.91    \nframe=   94 fps=0.8 q=30.2 size=     512KiB time=00:00:03.06 bitrate=1367.8kbits/s speed=0.0253x elapsed=0:02:01.42    \nframe=   94 fps=0.8 q=30.2 size=     512KiB time=00:00:03.06 bitrate=1367.8kbits/s speed=0.0251x elapsed=0:02:01.96    \nframe=   94 fps=0.8 q=30.2 size=     512KiB time=00:00:03.06 bitrate=1367.8kbits/s speed=0.025x elapsed=0:02:02.48    \nframe=   95 fps=0.8 q=31.6 size=     512KiB time=00:00:03.10 bitrate=1353.1kbits/s speed=0.0252x elapsed=0:02:03.01    \nframe=   95 fps=0.8 q=31.6 size=     512KiB time=00:00:03.10 bitrate=1353.1kbits/s speed=0.0251x elapsed=0:02:03.53    \nframe=   96 fps=0.8 q=37.6 size=     768KiB time=00:00:03.13 bitrate=2008.0kbits/s speed=0.0253x elapsed=0:02:04.04    \nframe=   96 fps=0.8 q=37.6 size=     768KiB time=00:00:03.13 bitrate=2008.0kbits/s speed=0.0252x elapsed=0:02:04.56    \nframe=   97 fps=0.8 q=37.6 size=     768KiB time=00:00:03.16 bitrate=1986.9kbits/s speed=0.0253x elapsed=0:02:05.07    \nframe=   97 fps=0.8 q=37.6 size=     768KiB time=00:00:03.16 bitrate=1986.9kbits/s speed=0.0252x elapsed=0:02:05.59    \nframe=   98 fps=0.8 q=38.8 size=     768KiB time=00:00:03.20 bitrate=1966.2kbits/s speed=0.0254x elapsed=0:02:06.11    \nframe=   98 fps=0.8 q=38.8 size=     768KiB time=00:00:03.20 bitrate=1966.2kbits/s speed=0.0253x elapsed=0:02:06.62    \nframe=   98 fps=0.8 q=38.8 size=     768KiB time=00:00:03.20 bitrate=1966.2kbits/s speed=0.0252x elapsed=0:02:07.17    \nframe=  100 fps=0.8 q=35.9 size=     768KiB time=00:00:03.26 bitrate=1926.1kbits/s speed=0.0256x elapsed=0:02:07.72    \nframe=  100 fps=0.8 q=35.9 size=     768KiB time=00:00:03.26 bitrate=1926.1kbits/s speed=0.0255x elapsed=0:02:08.22    \nframe=  101 fps=0.8 q=38.5 size=     768KiB time=00:00:03.30 bitrate=1906.6kbits/s speed=0.0256x elapsed=0:02:08.75    \nframe=  101 fps=0.8 q=38.5 size=     768KiB time=00:00:03.30 bitrate=1906.6kbits/s speed=0.0255x elapsed=0:02:09.27    \nframe=  101 fps=0.8 q=38.5 size=     768KiB time=00:00:03.30 bitrate=1906.6kbits/s speed=0.0254x elapsed=0:02:09.82    \nframe=  101 fps=0.8 q=38.5 size=     768KiB time=00:00:03.30 bitrate=1906.6kbits/s speed=0.0253x elapsed=0:02:10.34    \nframe=  102 fps=0.8 q=38.7 size=     768KiB time=00:00:03.33 bitrate=1887.5kbits/s speed=0.0255x elapsed=0:02:10.88    \nframe=  102 fps=0.8 q=38.7 size=     768KiB time=00:00:03.33 bitrate=1887.5kbits/s speed=0.0254x elapsed=0:02:11.38    \nframe=  102 fps=0.8 q=38.7 size=     768KiB time=00:00:03.33 bitrate=1887.5kbits/s speed=0.0253x elapsed=0:02:11.90    \nframe=  102 fps=0.8 q=38.7 size=     768KiB time=00:00:03.33 bitrate=1887.5kbits/s speed=0.0252x elapsed=0:02:12.43    \nframe=  102 fps=0.8 q=38.7 size=     768KiB time=00:00:03.33 bitrate=1887.5kbits/s speed=0.0251x elapsed=0:02:12.96    \nframe=  103 fps=0.8 q=30.6 size=     768KiB time=00:00:03.36 bitrate=1868.9kbits/s speed=0.0252x elapsed=0:02:13.48    \nframe=  103 fps=0.8 q=30.6 size=     768KiB time=00:00:03.36 bitrate=1868.9kbits/s speed=0.0251x elapsed=0:02:14.01    \nframe=  104 fps=0.8 q=35.9 size=     768KiB time=00:00:03.40 bitrate=1850.5kbits/s speed=0.0253x elapsed=0:02:14.54    \nframe=  105 fps=0.8 q=38.7 size=     768KiB time=00:00:03.43 bitrate=1832.6kbits/s speed=0.0254x elapsed=0:02:15.06    \nframe=  105 fps=0.8 q=38.7 size=     768KiB time=00:00:03.43 bitrate=1832.6kbits/s speed=0.0253x elapsed=0:02:15.57    \nframe=  105 fps=0.8 q=38.7 size=     768KiB time=00:00:03.43 bitrate=1832.6kbits/s speed=0.0252x elapsed=0:02:16.09    \nframe=  106 fps=0.8 q=38.8 size=     768KiB time=00:00:03.46 bitrate=1814.9kbits/s speed=0.0254x elapsed=0:02:16.61    \nframe=  106 fps=0.8 q=38.8 size=     768KiB time=00:00:03.46 bitrate=1814.9kbits/s speed=0.0253x elapsed=0:02:17.12    \nframe=  106 fps=0.8 q=38.8 size=     768KiB time=00:00:03.46 bitrate=1814.9kbits/s speed=0.0252x elapsed=0:02:17.64    \nframe=  107 fps=0.8 q=30.8 size=     768KiB time=00:00:03.50 bitrate=1797.7kbits/s speed=0.0253x elapsed=0:02:18.17    \nframe=  107 fps=0.8 q=30.8 size=     768KiB time=00:00:03.50 bitrate=1797.7kbits/s speed=0.0252x elapsed=0:02:18.70    \nframe=  108 fps=0.8 q=35.9 size=     768KiB time=00:00:03.53 bitrate=1780.7kbits/s speed=0.0254x elapsed=0:02:19.22    \nframe=  108 fps=0.8 q=35.9 size=     768KiB time=00:00:03.53 bitrate=1780.7kbits/s speed=0.0253x elapsed=0:02:19.74    \nframe=  108 fps=0.8 q=35.9 size=     768KiB time=00:00:03.53 bitrate=1780.7kbits/s speed=0.0252x elapsed=0:02:20.27    \nframe=  109 fps=0.8 q=38.6 size=     768KiB time=00:00:03.56 bitrate=1764.1kbits/s speed=0.0253x elapsed=0:02:20.81    \nframe=  109 fps=0.8 q=38.6 size=     768KiB time=00:00:03.56 bitrate=1764.1kbits/s speed=0.0252x elapsed=0:02:21.32    \nframe=  109 fps=0.8 q=38.6 size=     768KiB time=00:00:03.56 bitrate=1764.1kbits/s speed=0.0251x elapsed=0:02:21.88    \nframe=  109 fps=0.8 q=38.6 size=     768KiB time=00:00:03.56 bitrate=1764.1kbits/s speed=0.025x elapsed=0:02:22.53    \nframe=  109 fps=0.8 q=38.6 size=     768KiB time=00:00:03.56 bitrate=1764.1kbits/s speed=0.0249x elapsed=0:02:23.12    \nframe=  109 fps=0.8 q=38.6 size=     768KiB time=00:00:03.56 bitrate=1764.1kbits/s speed=0.0248x elapsed=0:02:23.65    \nframe=  110 fps=0.8 q=30.8 size=     768KiB time=00:00:03.60 bitrate=1747.7kbits/s speed=0.025x elapsed=0:02:24.18    \nframe=  111 fps=0.8 q=36.2 size=     768KiB time=00:00:03.63 bitrate=1731.7kbits/s speed=0.0251x elapsed=0:02:24.70    \nframe=  111 fps=0.8 q=36.2 size=     768KiB time=00:00:03.63 bitrate=1731.7kbits/s speed=0.025x elapsed=0:02:25.22    \nframe=  112 fps=0.8 q=38.7 size=     768KiB time=00:00:03.66 bitrate=1715.9kbits/s speed=0.0252x elapsed=0:02:25.75    \nframe=  112 fps=0.8 q=38.7 size=     768KiB time=00:00:03.66 bitrate=1715.9kbits/s speed=0.0251x elapsed=0:02:26.31    \nframe=  113 fps=0.8 q=38.9 size=     768KiB time=00:00:03.70 bitrate=1700.5kbits/s speed=0.0252x elapsed=0:02:26.83    \nframe=  113 fps=0.8 q=38.9 size=     768KiB time=00:00:03.70 bitrate=1700.5kbits/s speed=0.0251x elapsed=0:02:27.35    \nframe=  113 fps=0.8 q=38.9 size=     768KiB time=00:00:03.70 bitrate=1700.5kbits/s speed=0.025x elapsed=0:02:27.90    \nframe=  114 fps=0.8 q=30.7 size=     768KiB time=00:00:03.73 bitrate=1685.3kbits/s speed=0.0251x elapsed=0:02:28.45    \nframe=  114 fps=0.8 q=30.7 size=     768KiB time=00:00:03.73 bitrate=1685.3kbits/s speed=0.0251x elapsed=0:02:28.97    \nframe=  115 fps=0.8 q=36.3 size=     768KiB time=00:00:03.76 bitrate=1670.4kbits/s speed=0.0252x elapsed=0:02:29.50    \nframe=  115 fps=0.8 q=36.3 size=     768KiB time=00:00:03.76 bitrate=1670.4kbits/s speed=0.0251x elapsed=0:02:30.03    \nframe=  116 fps=0.8 q=38.8 size=     768KiB time=00:00:03.80 bitrate=1655.7kbits/s speed=0.0252x elapsed=0:02:30.57    \nframe=  116 fps=0.8 q=38.8 size=     768KiB time=00:00:03.80 bitrate=1655.7kbits/s speed=0.0252x elapsed=0:02:31.09    \nframe=  116 fps=0.8 q=38.8 size=     768KiB time=00:00:03.80 bitrate=1655.7kbits/s speed=0.0251x elapsed=0:02:31.61    \nframe=  116 fps=0.8 q=38.8 size=     768KiB time=00:00:03.80 bitrate=1655.7kbits/s speed=0.025x elapsed=0:02:32.14    \nframe=  116 fps=0.8 q=38.8 size=     768KiB time=00:00:03.80 bitrate=1655.7kbits/s speed=0.0249x elapsed=0:02:32.66    \nframe=  117 fps=0.8 q=38.6 size=     768KiB time=00:00:03.83 bitrate=1641.3kbits/s speed=0.025x elapsed=0:02:33.22    \nframe=  118 fps=0.8 q=31.1 size=     768KiB time=00:00:03.86 bitrate=1627.2kbits/s speed=0.0251x elapsed=0:02:33.74    \nframe=  119 fps=0.8 q=36.3 size=     768KiB time=00:00:03.90 bitrate=1613.3kbits/s speed=0.0253x elapsed=0:02:34.27    \nframe=  119 fps=0.8 q=36.3 size=     768KiB time=00:00:03.90 bitrate=1613.3kbits/s speed=0.0252x elapsed=0:02:34.82    \nframe=  119 fps=0.8 q=36.3 size=     768KiB time=00:00:03.90 bitrate=1613.3kbits/s speed=0.0251x elapsed=0:02:35.37    \nframe=  120 fps=0.8 q=38.7 size=     768KiB time=00:00:03.93 bitrate=1599.6kbits/s speed=0.0252x elapsed=0:02:35.89    \nframe=  120 fps=0.8 q=38.7 size=     768KiB time=00:00:03.93 bitrate=1599.6kbits/s speed=0.0251x elapsed=0:02:36.40    \nframe=  120 fps=0.8 q=38.7 size=     768KiB time=00:00:03.93 bitrate=1599.6kbits/s speed=0.0251x elapsed=0:02:36.93    \nframe=  121 fps=0.8 q=38.8 size=     768KiB time=00:00:03.96 bitrate=1586.2kbits/s speed=0.0252x elapsed=0:02:37.46    \nframe=  121 fps=0.8 q=38.8 size=     768KiB time=00:00:03.96 bitrate=1586.2kbits/s speed=0.0251x elapsed=0:02:37.98    \nframe=  121 fps=0.8 q=38.8 size=     768KiB time=00:00:03.96 bitrate=1586.2kbits/s speed=0.025x elapsed=0:02:38.49    \nframe=  121 fps=0.8 q=38.8 size=     768KiB time=00:00:03.96 bitrate=1586.2kbits/s speed=0.0249x elapsed=0:02:39.02    \nframe=  121 fps=0.8 q=38.8 size=     768KiB time=00:00:03.96 bitrate=1586.2kbits/s speed=0.0249x elapsed=0:02:39.54    \nframe=  121 fps=0.8 q=38.8 size=     768KiB time=00:00:03.96 bitrate=1586.2kbits/s speed=0.0248x elapsed=0:02:40.09    \nframe=  122 fps=0.8 q=31.2 size=     768KiB time=00:00:04.00 bitrate=1573.0kbits/s speed=0.0249x elapsed=0:02:40.62    \nframe=  123 fps=0.8 q=37.4 size=     768KiB time=00:00:04.03 bitrate=1560.0kbits/s speed=0.025x elapsed=0:02:41.14    \nframe=  123 fps=0.8 q=37.4 size=     768KiB time=00:00:04.03 bitrate=1560.0kbits/s speed=0.0249x elapsed=0:02:41.66    \nframe=  124 fps=0.8 q=38.7 size=     768KiB time=00:00:04.06 bitrate=1547.2kbits/s speed=0.0251x elapsed=0:02:42.17    \nframe=  124 fps=0.8 q=38.7 size=     768KiB time=00:00:04.06 bitrate=1547.2kbits/s speed=0.025x elapsed=0:02:42.68    \nframe=  124 fps=0.8 q=38.7 size=     768KiB time=00:00:04.06 bitrate=1547.2kbits/s speed=0.0249x elapsed=0:02:43.19    \nframe=  124 fps=0.8 q=38.7 size=     768KiB time=00:00:04.06 bitrate=1547.2kbits/s speed=0.0248x elapsed=0:02:43.74    \nframe=  125 fps=0.8 q=39.3 size=     768KiB time=00:00:04.10 bitrate=1534.6kbits/s speed=0.025x elapsed=0:02:44.27    \nframe=  126 fps=0.8 q=39.7 size=     768KiB time=00:00:04.13 bitrate=1522.2kbits/s speed=0.0251x elapsed=0:02:44.79    \nframe=  127 fps=0.8 q=31.6 size=     768KiB time=00:00:04.16 bitrate=1510.0kbits/s speed=0.0252x elapsed=0:02:45.31    \nframe=  128 fps=0.8 q=36.5 size=    1024KiB time=00:00:04.20 bitrate=1997.4kbits/s speed=0.0253x elapsed=0:02:45.82    \nframe=  128 fps=0.8 q=36.5 size=    1024KiB time=00:00:04.20 bitrate=1997.4kbits/s speed=0.0252x elapsed=0:02:46.35    \nframe=  128 fps=0.8 q=36.5 size=    1024KiB time=00:00:04.20 bitrate=1997.4kbits/s speed=0.0252x elapsed=0:02:46.88    \nframe=  128 fps=0.8 q=36.5 size=    1024KiB time=00:00:04.20 bitrate=1997.4kbits/s speed=0.0251x elapsed=0:02:47.43    \nframe=  129 fps=0.8 q=38.9 size=    1024KiB time=00:00:04.23 bitrate=1981.6kbits/s speed=0.0252x elapsed=0:02:47.95    \nframe=  129 fps=0.8 q=38.9 size=    1024KiB time=00:00:04.23 bitrate=1981.6kbits/s speed=0.0251x elapsed=0:02:48.47    \nframe=  129 fps=0.8 q=38.9 size=    1024KiB time=00:00:04.23 bitrate=1981.6kbits/s speed=0.0251x elapsed=0:02:48.99    \nframe=  130 fps=0.8 q=39.7 size=    1024KiB time=00:00:04.26 bitrate=1966.2kbits/s speed=0.0252x elapsed=0:02:49.49    \nframe=  130 fps=0.8 q=39.7 size=    1024KiB time=00:00:04.26 bitrate=1966.2kbits/s speed=0.0251x elapsed=0:02:50.03    \nframe=  131 fps=0.8 q=31.2 size=    1024KiB time=00:00:04.30 bitrate=1950.9kbits/s speed=0.0252x elapsed=0:02:50.57    \nframe=  131 fps=0.8 q=31.2 size=    1024KiB time=00:00:04.30 bitrate=1950.9kbits/s speed=0.0251x elapsed=0:02:51.10    \nframe=  132 fps=0.8 q=36.3 size=    1024KiB time=00:00:04.33 bitrate=1935.9kbits/s speed=0.0252x elapsed=0:02:51.64    \nframe=  132 fps=0.8 q=36.3 size=    1024KiB time=00:00:04.33 bitrate=1935.9kbits/s speed=0.0252x elapsed=0:02:52.16    \nframe=  132 fps=0.8 q=36.3 size=    1024KiB time=00:00:04.33 bitrate=1935.9kbits/s speed=0.0251x elapsed=0:02:52.70    \nframe=  133 fps=0.8 q=39.6 size=    1024KiB time=00:00:04.36 bitrate=1921.1kbits/s speed=0.0252x elapsed=0:02:53.22    \nframe=  133 fps=0.8 q=39.6 size=    1024KiB time=00:00:04.36 bitrate=1921.1kbits/s speed=0.0251x elapsed=0:02:53.73    \nframe=  133 fps=0.8 q=39.6 size=    1024KiB time=00:00:04.36 bitrate=1921.1kbits/s speed=0.0251x elapsed=0:02:54.24    \nframe=  133 fps=0.8 q=39.6 size=    1024KiB time=00:00:04.36 bitrate=1921.1kbits/s speed=0.025x elapsed=0:02:54.77    \nframe=  133 fps=0.8 q=39.6 size=    1024KiB time=00:00:04.36 bitrate=1921.1kbits/s speed=0.0249x elapsed=0:02:55.29    \nframe=  134 fps=0.8 q=39.6 size=    1024KiB time=00:00:04.40 bitrate=1906.6kbits/s speed=0.025x elapsed=0:02:55.82    \nframe=  134 fps=0.8 q=39.6 size=    1024KiB time=00:00:04.40 bitrate=1906.6kbits/s speed=0.025x elapsed=0:02:56.34    \nframe=  135 fps=0.8 q=31.2 size=    1024KiB time=00:00:04.43 bitrate=1892.2kbits/s speed=0.0251x elapsed=0:02:56.89    \nframe=  135 fps=0.8 q=31.2 size=    1024KiB time=00:00:04.43 bitrate=1892.2kbits/s speed=0.025x elapsed=0:02:57.41    \nframe=  135 fps=0.8 q=31.2 size=    1024KiB time=00:00:04.43 bitrate=1892.2kbits/s speed=0.0249x elapsed=0:02:57.94    \nframe=  136 fps=0.8 q=37.6 size=    1024KiB time=00:00:04.46 bitrate=1878.1kbits/s speed=0.025x elapsed=0:02:58.52    \nframe=  136 fps=0.8 q=37.6 size=    1024KiB time=00:00:04.46 bitrate=1878.1kbits/s speed=0.0249x elapsed=0:02:59.10    \nframe=  136 fps=0.8 q=37.6 size=    1024KiB time=00:00:04.46 bitrate=1878.1kbits/s speed=0.0249x elapsed=0:02:59.70    \nframe=  136 fps=0.8 q=37.6 size=    1024KiB time=00:00:04.46 bitrate=1878.1kbits/s speed=0.0248x elapsed=0:03:00.24    \nframe=  137 fps=0.8 q=39.2 size=    1024KiB time=00:00:04.46 bitrate=1878.1kbits/s speed=0.0247x elapsed=0:03:00.78    \nframe=  137 fps=0.8 q=39.2 size=    1024KiB time=00:00:04.50 bitrate=1864.2kbits/s speed=0.0248x elapsed=0:03:01.34    \nframe=  137 fps=0.8 q=39.2 size=    1024KiB time=00:00:04.50 bitrate=1864.2kbits/s speed=0.0247x elapsed=0:03:01.92    \nframe=  137 fps=0.8 q=39.2 size=    1024KiB time=00:00:04.50 bitrate=1864.2kbits/s speed=0.0246x elapsed=0:03:02.57    \nframe=  137 fps=0.7 q=39.2 size=    1024KiB time=00:00:04.50 bitrate=1864.2kbits/s speed=0.0246x elapsed=0:03:03.13    \nframe=  137 fps=0.7 q=39.2 size=    1024KiB time=00:00:04.50 bitrate=1864.2kbits/s speed=0.0245x elapsed=0:03:03.68    \nframe=  137 fps=0.7 q=39.2 size=    1024KiB time=00:00:04.50 bitrate=1864.2kbits/s speed=0.0244x elapsed=0:03:04.21    \nframe=  137 fps=0.7 q=39.2 size=    1024KiB time=00:00:04.50 bitrate=1864.2kbits/s speed=0.0244x elapsed=0:03:04.75    \nframe=  138 fps=0.7 q=38.6 size=    1024KiB time=00:00:04.53 bitrate=1850.5kbits/s speed=0.0245x elapsed=0:03:05.35    \nframe=  138 fps=0.7 q=38.6 size=    1024KiB time=00:00:04.53 bitrate=1850.5kbits/s speed=0.0244x elapsed=0:03:05.90    \nframe=  138 fps=0.7 q=38.6 size=    1024KiB time=00:00:04.53 bitrate=1850.5kbits/s speed=0.0243x elapsed=0:03:06.44    \nframe=  138 fps=0.7 q=38.6 size=    1024KiB time=00:00:04.53 bitrate=1850.5kbits/s speed=0.0242x elapsed=0:03:06.97    \nframe=  138 fps=0.7 q=38.6 size=    1024KiB time=00:00:04.53 bitrate=1850.5kbits/s speed=0.0242x elapsed=0:03:07.52    \nframe=  138 fps=0.7 q=38.6 size=    1024KiB time=00:00:04.53 bitrate=1850.5kbits/s speed=0.0241x elapsed=0:03:08.08    \nframe=  138 fps=0.7 q=38.6 size=    1024KiB time=00:00:04.53 bitrate=1850.5kbits/s speed=0.024x elapsed=0:03:08.62    \nframe=  138 fps=0.7 q=38.6 size=    1024KiB time=00:00:04.53 bitrate=1850.5kbits/s speed=0.024x elapsed=0:03:09.17    \nframe=  138 fps=0.7 q=38.6 size=    1024KiB time=00:00:04.53 bitrate=1850.5kbits/s speed=0.0239x elapsed=0:03:09.69    \nframe=  139 fps=0.7 q=38.7 size=    1024KiB time=00:00:04.56 bitrate=1837.0kbits/s speed=0.024x elapsed=0:03:10.21    \nframe=  140 fps=0.7 q=32.0 size=    1024KiB time=00:00:04.60 bitrate=1823.7kbits/s speed=0.0241x elapsed=0:03:10.73    \nframe=  141 fps=0.7 q=36.0 size=    1024KiB time=00:00:04.63 bitrate=1810.6kbits/s speed=0.0242x elapsed=0:03:11.26    \nframe=  141 fps=0.7 q=36.0 size=    1024KiB time=00:00:04.63 bitrate=1810.6kbits/s speed=0.0242x elapsed=0:03:11.77    \nframe=  141 fps=0.7 q=36.0 size=    1024KiB time=00:00:04.63 bitrate=1810.6kbits/s speed=0.0241x elapsed=0:03:12.30    \nframe=  141 fps=0.7 q=36.0 size=    1024KiB time=00:00:04.63 bitrate=1810.6kbits/s speed=0.024x elapsed=0:03:12.88    \nframe=  142 fps=0.7 q=38.8 size=    1024KiB time=00:00:04.66 bitrate=1797.6kbits/s speed=0.0241x elapsed=0:03:13.41    \nframe=  143 fps=0.7 q=38.6 size=    1024KiB time=00:00:04.70 bitrate=1784.9kbits/s speed=0.0242x elapsed=0:03:13.91    \nframe=  143 fps=0.7 q=38.6 size=    1024KiB time=00:00:04.70 bitrate=1784.9kbits/s speed=0.0242x elapsed=0:03:14.43    \nframe=  143 fps=0.7 q=38.6 size=    1024KiB time=00:00:04.70 bitrate=1784.9kbits/s speed=0.0241x elapsed=0:03:14.96    \nframe=  144 fps=0.7 q=32.3 size=    1024KiB time=00:00:04.73 bitrate=1772.3kbits/s speed=0.0242x elapsed=0:03:15.50    \nframe=  144 fps=0.7 q=32.3 size=    1024KiB time=00:00:04.73 bitrate=1772.3kbits/s speed=0.0241x elapsed=0:03:16.04    \nframe=  144 fps=0.7 q=32.3 size=    1024KiB time=00:00:04.73 bitrate=1772.3kbits/s speed=0.0241x elapsed=0:03:16.58    \nframe=  145 fps=0.7 q=37.3 size=    1024KiB time=00:00:04.76 bitrate=1759.9kbits/s speed=0.0242x elapsed=0:03:17.11    \nframe=  145 fps=0.7 q=37.3 size=    1024KiB time=00:00:04.76 bitrate=1759.9kbits/s speed=0.0241x elapsed=0:03:17.64    \nframe=  146 fps=0.7 q=38.3 size=    1024KiB time=00:00:04.80 bitrate=1747.7kbits/s speed=0.0242x elapsed=0:03:18.18    \nframe=  147 fps=0.7 q=32.9 size=    1024KiB time=00:00:04.83 bitrate=1735.6kbits/s speed=0.0243x elapsed=0:03:18.73    \nframe=  147 fps=0.7 q=32.9 size=    1024KiB time=00:00:04.83 bitrate=1735.6kbits/s speed=0.0243x elapsed=0:03:19.26    \nframe=  147 fps=0.7 q=32.9 size=    1024KiB time=00:00:04.83 bitrate=1735.6kbits/s speed=0.0242x elapsed=0:03:19.78    \nframe=  147 fps=0.7 q=32.9 size=    1024KiB time=00:00:04.83 bitrate=1735.6kbits/s speed=0.0241x elapsed=0:03:20.31    \nframe=  148 fps=0.7 q=32.3 size=    1024KiB time=00:00:04.86 bitrate=1723.8kbits/s speed=0.0242x elapsed=0:03:20.85    \n[mp4 @ 000002ac2f1ca980] Starting second pass: moving the moov atom to the beginning of the file\n[out#0/mp4 @ 000002ac2f1d1700] video:1200KiB audio:0KiB subtitle:0KiB other streams:0KiB global headers:2KiB muxing overhead: 0.430316%\nframe=  150 fps=0.7 q=35.3 Lsize=    1205KiB time=00:00:04.93 bitrate=2001.3kbits/s speed=0.0245x elapsed=0:03:21.29    \nx265 [info]: frame I:      1, Avg QP:36.09  kb/s: 8289.12 \nx265 [info]: frame P:     38, Avg QP:31.38  kb/s: 5798.79 \nx265 [info]: frame B:    111, Avg QP:37.06  kb/s: 595.86  \nx265 [info]: Weighted P-Frames: Y:39.5% UV:34.2%\n\nencoded 150 frames in 200.97s (0.75 fps), 1965.22 kb/s, Avg QP:35.61\n",
  "seconds": 201.71947169303894,
  "probe_out": {}
}